# Blender v2.79 (sub 0) OBJ File: 'flasche.blend'
# www.blender.org
mtllib flasche.mtl
o Cylinder
v 0.000000 0.696929 -0.300000
v 0.000000 1.576418 -0.300000
v 0.058527 0.696929 -0.294236
v 0.058527 1.576418 -0.294236
v 0.114805 0.696929 -0.277164
v 0.114805 1.576418 -0.277164
v 0.166671 0.696929 -0.249441
v 0.166671 1.576418 -0.249441
v 0.212132 0.696929 -0.212132
v 0.212132 1.576418 -0.212132
v 0.249441 0.696929 -0.166671
v 0.249441 1.576418 -0.166671
v 0.277164 0.696929 -0.114805
v 0.277164 1.576418 -0.114805
v 0.294236 0.696929 -0.058527
v 0.294236 1.576418 -0.058527
v 0.300000 0.696929 -0.000000
v 0.300000 1.576418 -0.000000
v 0.294236 0.696929 0.058527
v 0.294236 1.576418 0.058527
v 0.277164 0.696929 0.114805
v 0.277164 1.576418 0.114805
v 0.249441 0.696929 0.166671
v 0.249441 1.576418 0.166671
v 0.212132 0.696929 0.212132
v 0.212132 1.576418 0.212132
v 0.166671 0.696929 0.249441
v 0.166671 1.576418 0.249441
v 0.114805 0.696929 0.277164
v 0.114805 1.576418 0.277164
v 0.058527 0.696929 0.294236
v 0.058527 1.576418 0.294236
v -0.000000 0.696929 0.300000
v -0.000000 1.576418 0.300000
v -0.058527 0.696929 0.294236
v -0.058527 1.576418 0.294236
v -0.114805 0.696929 0.277164
v -0.114805 1.576418 0.277164
v -0.166671 0.696929 0.249441
v -0.166671 1.576418 0.249441
v -0.212132 0.696929 0.212132
v -0.212132 1.576418 0.212132
v -0.249441 0.696929 0.166671
v -0.249441 1.576418 0.166671
v -0.277164 0.696929 0.114805
v -0.277164 1.576418 0.114805
v -0.294236 0.696929 0.058527
v -0.294236 1.576418 0.058527
v -0.300000 0.696929 -0.000000
v -0.300000 1.576418 -0.000000
v -0.294236 0.696929 -0.058527
v -0.294236 1.576418 -0.058527
v -0.277164 0.696929 -0.114805
v -0.277164 1.576418 -0.114805
v -0.249441 0.696929 -0.166671
v -0.249441 1.576418 -0.166671
v -0.212132 0.696929 -0.212132
v -0.212132 1.576418 -0.212132
v -0.166671 0.696929 -0.249441
v -0.166671 1.576418 -0.249441
v -0.114805 0.696929 -0.277164
v -0.114805 1.576418 -0.277164
v -0.058527 0.696929 -0.294236
v -0.058527 1.576418 -0.294236
v 0.000000 0.627954 -0.212434
v 0.039611 0.627954 -0.208352
v 0.077699 0.627954 -0.196263
v 0.112802 0.627954 -0.176632
v 0.143569 0.627954 -0.150213
v 0.168819 0.627954 -0.118022
v 0.187582 0.627954 -0.081295
v 0.199136 0.627954 -0.041444
v 0.203037 0.627954 -0.000000
v 0.199136 0.627954 0.041444
v 0.187582 0.627954 0.081295
v 0.168819 0.627954 0.118022
v 0.143569 0.627954 0.150213
v 0.112802 0.627954 0.176632
v 0.077699 0.627954 0.196263
v 0.039611 0.627954 0.208352
v -0.000000 0.627954 0.212434
v -0.039611 0.627954 0.208352
v -0.077699 0.627954 0.196263
v -0.112802 0.627954 0.176632
v -0.143569 0.627954 0.150213
v -0.168820 0.627954 0.118022
v -0.187582 0.627954 0.081295
v -0.199136 0.627954 0.041444
v -0.203037 0.627954 -0.000000
v -0.199136 0.627954 -0.041444
v -0.187582 0.627954 -0.081295
v -0.168819 0.627954 -0.118022
v -0.143569 0.627954 -0.150214
v -0.112801 0.627954 -0.176632
v -0.077699 0.627954 -0.196263
v -0.039610 0.627954 -0.208352
v 0.017770 1.707233 -0.089517
v 0.000000 1.707233 -0.091271
v 0.034858 1.707233 -0.084323
v 0.050606 1.707233 -0.075889
v 0.064409 1.707233 -0.064538
v 0.075737 1.707233 -0.050707
v 0.084155 1.707233 -0.034928
v 0.089338 1.707233 -0.017806
v 0.091088 1.707233 -0.000000
v 0.089338 1.707233 0.017806
v 0.084155 1.707233 0.034928
v 0.075737 1.707233 0.050707
v 0.064409 1.707233 0.064538
v 0.050606 1.707233 0.075889
v 0.034858 1.707233 0.084323
v 0.017770 1.707233 0.089517
v 0.000000 1.707233 0.091271
v -0.017770 1.707233 0.089517
v -0.034858 1.707233 0.084323
v -0.050606 1.707233 0.075889
v -0.064409 1.707233 0.064538
v -0.075737 1.707233 0.050707
v -0.084154 1.707233 0.034928
v -0.089338 1.707233 0.017806
v -0.091088 1.707233 -0.000000
v -0.089338 1.707233 -0.017806
v -0.084154 1.707233 -0.034928
v -0.075737 1.707233 -0.050707
v -0.064409 1.707233 -0.064538
v -0.050606 1.707233 -0.075889
v -0.034858 1.707233 -0.084323
v -0.017770 1.707233 -0.089517
v 0.017771 1.995278 -0.089517
v 0.000000 1.995278 -0.091271
v 0.034858 1.995278 -0.084323
v 0.050606 1.995278 -0.075889
v 0.064409 1.995278 -0.064538
v 0.075737 1.995278 -0.050707
v 0.084155 1.995278 -0.034928
v 0.089338 1.995278 -0.017806
v 0.091088 1.995278 -0.000000
v 0.089338 1.995278 0.017806
v 0.084155 1.995278 0.034928
v 0.075737 1.995278 0.050707
v 0.064409 1.995278 0.064538
v 0.050606 1.995278 0.075889
v 0.034858 1.995278 0.084323
v 0.017771 1.995278 0.089517
v 0.000000 1.995278 0.091271
v -0.017770 1.995278 0.089517
v -0.034858 1.995278 0.084323
v -0.050606 1.995278 0.075889
v -0.064409 1.995278 0.064538
v -0.075737 1.995278 0.050707
v -0.084154 1.995278 0.034928
v -0.089338 1.995278 0.017806
v -0.091088 1.995278 -0.000000
v -0.089338 1.995278 -0.017806
v -0.084154 1.995278 -0.034928
v -0.075737 1.995278 -0.050707
v -0.064409 1.995278 -0.064538
v -0.050606 1.995278 -0.075889
v -0.034858 1.995278 -0.084323
v -0.017770 1.995278 -0.089517
v 0.020716 2.024535 -0.105046
v 0.000000 2.024535 -0.107104
v 0.040636 2.024535 -0.098951
v 0.058994 2.024535 -0.089054
v 0.075085 2.024535 -0.075734
v 0.088290 2.024535 -0.059504
v 0.098103 2.024535 -0.040987
v 0.104145 2.024535 -0.020895
v 0.106186 2.024535 -0.000000
v 0.104145 2.024535 0.020895
v 0.098103 2.024535 0.040987
v 0.088290 2.024535 0.059504
v 0.075085 2.024535 0.075734
v 0.058994 2.024535 0.089054
v 0.040636 2.024535 0.098951
v 0.020716 2.024535 0.105046
v 0.000000 2.024535 0.107104
v -0.020716 2.024535 0.105046
v -0.040635 2.024535 0.098951
v -0.058994 2.024535 0.089054
v -0.075085 2.024535 0.075734
v -0.088290 2.024535 0.059504
v -0.098103 2.024535 0.040987
v -0.104145 2.024535 0.020895
v -0.106186 2.024535 -0.000000
v -0.104145 2.024535 -0.020895
v -0.098103 2.024535 -0.040987
v -0.088290 2.024535 -0.059504
v -0.075084 2.024535 -0.075734
v -0.058993 2.024535 -0.089054
v -0.040635 2.024535 -0.098951
v -0.020716 2.024535 -0.105046
v 0.011132 2.047094 -0.055174
v 0.000000 2.047094 -0.056254
v 0.021836 2.047094 -0.051972
v 0.031701 2.047094 -0.046774
v 0.040348 2.047094 -0.039778
v 0.047444 2.047094 -0.031253
v 0.052717 2.047094 -0.021528
v 0.055964 2.047094 -0.010975
v 0.057060 2.047094 -0.000000
v 0.055964 2.047094 0.010975
v 0.052717 2.047094 0.021528
v 0.047444 2.047094 0.031253
v 0.040348 2.047094 0.039778
v 0.031701 2.047094 0.046774
v 0.021836 2.047094 0.051972
v 0.011132 2.047094 0.055173
v 0.000000 2.047094 0.056254
v -0.011132 2.047094 0.055173
v -0.021836 2.047094 0.051972
v -0.031701 2.047094 0.046774
v -0.040347 2.047094 0.039778
v -0.047443 2.047094 0.031253
v -0.052716 2.047094 0.021527
v -0.055963 2.047094 0.010975
v -0.057060 2.047094 -0.000000
v -0.055963 2.047094 -0.010975
v -0.052716 2.047094 -0.021528
v -0.047443 2.047094 -0.031253
v -0.040347 2.047094 -0.039778
v -0.031701 2.047094 -0.046774
v -0.021836 2.047094 -0.051972
v -0.011132 2.047094 -0.055174
vn 0.0000 -0.4265 -0.9045
vn 0.0000 0.4718 -0.8816
vn 0.1720 0.4718 -0.8647
vn 0.1778 -0.4273 -0.8864
vn 0.3374 0.4719 -0.8145
vn 0.3480 -0.4297 -0.8332
vn 0.4899 0.4719 -0.7330
vn 0.5036 -0.4332 -0.7475
vn 0.6234 0.4719 -0.6233
vn 0.6385 -0.4372 -0.6334
vn 0.7331 0.4719 -0.4897
vn 0.7480 -0.4410 -0.4958
vn 0.8145 0.4720 -0.3373
vn 0.8287 -0.4442 -0.3405
vn 0.8647 0.4720 -0.1719
vn 0.8780 -0.4462 -0.1733
vn 0.8816 0.4720 0.0000
vn 0.8945 -0.4469 0.0000
vn 0.8647 0.4720 0.1719
vn 0.8780 -0.4462 0.1733
vn 0.8145 0.4720 0.3373
vn 0.8287 -0.4442 0.3405
vn 0.7331 0.4719 0.4897
vn 0.7480 -0.4410 0.4958
vn 0.6234 0.4719 0.6233
vn 0.6385 -0.4372 0.6334
vn 0.4899 0.4719 0.7330
vn 0.5036 -0.4332 0.7475
vn 0.3374 0.4719 0.8145
vn 0.3480 -0.4297 0.8332
vn 0.1720 0.4718 0.8647
vn 0.1778 -0.4273 0.8864
vn 0.0000 0.4718 0.8816
vn 0.0000 -0.4265 0.9045
vn -0.1720 0.4718 0.8647
vn -0.1778 -0.4273 0.8864
vn -0.3374 0.4719 0.8145
vn -0.3480 -0.4297 0.8332
vn -0.4899 0.4719 0.7330
vn -0.5036 -0.4332 0.7475
vn -0.6234 0.4719 0.6233
vn -0.6385 -0.4372 0.6334
vn -0.7331 0.4719 0.4897
vn -0.7480 -0.4410 0.4958
vn -0.8145 0.4720 0.3373
vn -0.8287 -0.4442 0.3405
vn -0.8647 0.4720 0.1719
vn -0.8780 -0.4462 0.1733
vn -0.8816 0.4720 0.0000
vn -0.8945 -0.4469 0.0000
vn -0.8647 0.4720 -0.1719
vn -0.8780 -0.4462 -0.1733
vn -0.8145 0.4720 -0.3373
vn -0.8287 -0.4442 -0.3405
vn -0.7331 0.4719 -0.4897
vn -0.7480 -0.4410 -0.4958
vn -0.6234 0.4719 -0.6233
vn -0.6385 -0.4372 -0.6334
vn -0.4899 0.4719 -0.7330
vn -0.5036 -0.4332 -0.7475
vn -0.3374 0.4719 -0.8145
vn -0.3480 -0.4297 -0.8332
vn 0.4824 0.4975 -0.7209
vn 0.6138 0.4976 -0.6129
vn -0.1720 0.4718 -0.8647
vn -0.1778 -0.4273 -0.8864
vn 0.1895 -0.9412 0.2797
vn 0.2371 -0.9429 0.2337
vn 0.0000 -0.9382 -0.3460
vn 0.0682 -0.9386 -0.3381
vn 0.1325 -0.9397 -0.3154
vn 0.1895 -0.9412 -0.2797
vn 0.2371 -0.9429 -0.2337
vn 0.2741 -0.9446 -0.1805
vn 0.3002 -0.9460 -0.1226
vn 0.3157 -0.9468 -0.0619
vn 0.3208 -0.9471 0.0000
vn 0.3157 -0.9468 0.0619
vn 0.3002 -0.9460 0.1226
vn 0.2741 -0.9446 0.1805
vn 0.1325 -0.9397 0.3154
vn 0.0682 -0.9386 0.3381
vn 0.0000 -0.9382 0.3460
vn -0.0682 -0.9386 0.3381
vn -0.1325 -0.9397 0.3154
vn -0.1895 -0.9412 0.2797
vn -0.2371 -0.9429 0.2337
vn -0.2741 -0.9446 0.1805
vn -0.3002 -0.9460 0.1226
vn -0.3157 -0.9468 0.0619
vn -0.3208 -0.9471 0.0000
vn -0.3157 -0.9468 -0.0619
vn -0.3002 -0.9460 -0.1226
vn -0.2741 -0.9446 -0.1805
vn -0.2371 -0.9429 -0.2337
vn -0.1895 -0.9412 -0.2797
vn -0.1325 -0.9397 -0.3154
vn -0.0682 -0.9386 -0.3381
vn 0.6138 0.4976 0.6129
vn 0.7215 0.4976 0.4814
vn 0.8077 -0.2424 0.5373
vn 0.6872 -0.2443 0.6842
vn 0.4824 0.4975 0.7209
vn -0.7215 0.4976 0.4814
vn -0.8015 0.4976 0.3315
vn -0.3323 0.4975 -0.8012
vn -0.1694 0.4975 -0.8507
vn 0.8674 0.4976 0.0000
vn 0.8507 0.4976 0.1690
vn -0.1694 0.4975 0.8507
vn -0.3323 0.4975 0.8012
vn -0.8015 0.4976 -0.3315
vn -0.7215 0.4976 -0.4814
vn 0.7215 0.4976 -0.4814
vn 0.3323 0.4975 0.8012
vn -0.8508 0.4976 0.1690
vn 0.0000 0.4975 -0.8674
vn 0.1694 0.4975 -0.8507
vn 0.8015 0.4976 0.3315
vn -0.4824 0.4975 0.7209
vn -0.6138 0.4976 -0.6129
vn 0.8015 0.4976 -0.3315
vn 0.1694 0.4975 0.8507
vn -0.8674 0.4976 0.0000
vn 0.3323 0.4975 -0.8012
vn -0.6138 0.4976 0.6129
vn -0.4824 0.4975 -0.7209
vn 0.8508 0.4976 -0.1690
vn 0.0000 0.4975 0.8674
vn -0.8507 0.4976 -0.1690
vn 0.1897 -0.2488 0.9498
vn 0.3721 -0.2477 0.8945
vn 0.3645 0.3099 0.8781
vn 0.1859 0.3095 0.9325
vn -0.9523 -0.2398 -0.1886
vn -0.8972 -0.2409 -0.3700
vn 0.5401 -0.2461 0.8048
vn -0.8077 -0.2424 -0.5373
vn 0.0000 -0.2491 -0.9684
vn 0.1897 -0.2488 -0.9498
vn -0.6872 -0.2443 -0.6842
vn 0.3721 -0.2477 -0.8945
vn -0.5401 -0.2461 -0.8048
vn 0.0000 -0.2491 0.9684
vn 0.5401 -0.2461 -0.8048
vn -0.3721 -0.2477 -0.8945
vn -0.1897 -0.2488 0.9498
vn 0.6872 -0.2443 -0.6842
vn -0.1897 -0.2488 -0.9498
vn -0.3721 -0.2477 0.8945
vn 0.8077 -0.2424 -0.5373
vn -0.5401 -0.2461 0.8048
vn 0.8972 -0.2409 -0.3700
vn -0.6872 -0.2443 0.6842
vn 0.9523 -0.2398 -0.1886
vn -0.8077 -0.2424 0.5373
vn 0.9709 -0.2394 0.0000
vn -0.8972 -0.2409 0.3700
vn 0.9523 -0.2398 0.1886
vn -0.9523 -0.2398 0.1886
vn 0.8972 -0.2409 0.3700
vn -0.9709 -0.2394 0.0000
vn -0.3645 0.3099 0.8781
vn -0.1859 0.3095 0.9325
vn -0.0429 0.9756 0.2155
vn -0.0845 0.9754 0.2036
vn 0.1859 0.3095 -0.9325
vn 0.3645 0.3099 -0.8781
vn -0.6727 0.3112 -0.6712
vn -0.5289 0.3105 -0.7898
vn 0.0000 0.3094 0.9509
vn 0.5289 0.3105 -0.7898
vn -0.3645 0.3099 -0.8781
vn 0.6727 0.3112 -0.6712
vn -0.1859 0.3095 -0.9325
vn 0.7906 0.3118 -0.5270
vn 0.0000 0.3094 -0.9509
vn -0.5289 0.3105 0.7898
vn 0.8779 0.3124 -0.3628
vn -0.6727 0.3112 0.6712
vn 0.9316 0.3127 -0.1849
vn -0.7906 0.3118 0.5270
vn 0.9498 0.3128 0.0000
vn -0.8779 0.3124 0.3628
vn 0.9316 0.3127 0.1849
vn -0.9316 0.3127 0.1849
vn 0.8779 0.3124 0.3628
vn -0.9498 0.3128 0.0000
vn 0.7906 0.3118 0.5270
vn -0.9316 0.3127 -0.1849
vn 0.6727 0.3112 0.6712
vn -0.8779 0.3124 -0.3628
vn 0.5289 0.3105 0.7898
vn -0.7906 0.3118 -0.5270
vn 0.0429 0.9756 -0.2155
vn 0.0000 0.9756 -0.2195
vn -0.0429 0.9756 -0.2155
vn -0.0845 0.9754 -0.2036
vn -0.1233 0.9751 -0.1841
vn -0.1578 0.9748 -0.1574
vn -0.1865 0.9745 -0.1243
vn -0.2082 0.9743 -0.0860
vn -0.2217 0.9741 -0.0440
vn -0.2264 0.9740 0.0000
vn -0.2217 0.9741 0.0440
vn -0.2082 0.9743 0.0860
vn -0.1865 0.9745 0.1243
vn -0.1578 0.9748 0.1574
vn -0.1233 0.9751 0.1841
vn 0.0000 0.9756 0.2195
vn 0.0429 0.9756 0.2155
vn 0.0845 0.9754 0.2036
vn 0.1233 0.9751 0.1841
vn 0.1578 0.9748 0.1574
vn 0.1865 0.9745 0.1243
vn 0.2082 0.9743 0.0860
vn 0.2217 0.9741 0.0440
vn 0.2264 0.9740 0.0000
vn 0.2217 0.9741 -0.0440
vn 0.2082 0.9743 -0.0860
vn 0.1865 0.9745 -0.1243
vn 0.1578 0.9748 -0.1574
vn 0.1233 0.9751 -0.1841
vn 0.0845 0.9754 -0.2036
usemtl None
s 1
f 1//1 2//2 4//3 3//4
f 3//4 4//3 6//5 5//6
f 5//6 6//5 8//7 7//8
f 7//8 8//7 10//9 9//10
f 9//10 10//9 12//11 11//12
f 11//12 12//11 14//13 13//14
f 13//14 14//13 16//15 15//16
f 15//16 16//15 18//17 17//18
f 17//18 18//17 20//19 19//20
f 19//20 20//19 22//21 21//22
f 21//22 22//21 24//23 23//24
f 23//24 24//23 26//25 25//26
f 25//26 26//25 28//27 27//28
f 27//28 28//27 30//29 29//30
f 29//30 30//29 32//31 31//32
f 31//32 32//31 34//33 33//34
f 33//34 34//33 36//35 35//36
f 35//36 36//35 38//37 37//38
f 37//38 38//37 40//39 39//40
f 39//40 40//39 42//41 41//42
f 41//42 42//41 44//43 43//44
f 43//44 44//43 46//45 45//46
f 45//46 46//45 48//47 47//48
f 47//48 48//47 50//49 49//50
f 49//50 50//49 52//51 51//52
f 51//52 52//51 54//53 53//54
f 53//54 54//53 56//55 55//56
f 55//56 56//55 58//57 57//58
f 57//58 58//57 60//59 59//60
f 59//60 60//59 62//61 61//62
f 10//9 8//7 100//63 101//64
f 61//62 62//61 64//65 63//66
f 63//66 64//65 2//2 1//1
f 25//26 27//28 78//67 77//68
f 65//69 66//70 67//71 68//72 69//73 70//74 71//75 72//76 73//77 74//78 75//79 76//80 77//68 78//67 79//81 80//82 81//83 82//84 83//85 84//86 85//87 86//88 87//89 88//90 89//91 90//92 91//93 92//94 93//95 94//96 95//97 96//98
f 43//44 45//46 87//89 86//88
f 61//62 63//66 96//98 95//97
f 17//18 19//20 74//78 73//77
f 35//36 37//38 83//85 82//84
f 53//54 55//56 92//94 91//93
f 9//10 11//12 70//74 69//73
f 27//28 29//30 79//81 78//67
f 1//1 3//4 66//70 65//69
f 45//46 47//48 88//90 87//89
f 63//66 1//1 65//69 96//98
f 19//20 21//22 75//79 74//78
f 37//38 39//40 84//86 83//85
f 55//56 57//58 93//95 92//94
f 11//12 13//14 71//75 70//74
f 29//30 31//32 80//82 79//81
f 47//48 49//50 89//91 88//90
f 3//4 5//6 67//71 66//70
f 21//22 23//24 76//80 75//79
f 39//40 41//42 85//87 84//86
f 57//58 59//60 94//96 93//95
f 13//14 15//16 72//76 71//75
f 31//32 33//34 81//83 80//82
f 49//50 51//52 90//92 89//91
f 5//6 7//8 68//72 67//71
f 23//24 25//26 77//68 76//80
f 41//42 43//44 86//88 85//87
f 59//60 61//62 95//97 94//96
f 15//16 17//18 73//77 72//76
f 33//34 35//36 82//84 81//83
f 51//52 53//54 91//93 90//92
f 7//8 9//10 69//73 68//72
f 109//99 108//100 140//101 141//102
f 28//27 26//25 109//99 110//103
f 46//45 44//43 118//104 119//105
f 64//65 62//61 127//106 128//107
f 20//19 18//17 105//108 106//109
f 38//37 36//35 114//110 115//111
f 56//55 54//53 123//112 124//113
f 12//11 10//9 101//64 102//114
f 30//29 28//27 110//103 111//115
f 48//47 46//45 119//105 120//116
f 4//3 2//2 98//117 97//118
f 2//2 64//65 128//107 98//117
f 22//21 20//19 106//109 107//119
f 40//39 38//37 115//111 116//120
f 58//57 56//55 124//113 125//121
f 14//13 12//11 102//114 103//122
f 32//31 30//29 111//115 112//123
f 50//49 48//47 120//116 121//124
f 6//5 4//3 97//118 99//125
f 24//23 22//21 107//119 108//100
f 42//41 40//39 116//120 117//126
f 60//59 58//57 125//121 126//127
f 16//15 14//13 103//122 104//128
f 34//33 32//31 112//123 113//129
f 52//51 50//49 121//124 122//130
f 8//7 6//5 99//125 100//63
f 26//25 24//23 108//100 109//99
f 44//43 42//41 117//126 118//104
f 62//61 60//59 126//127 127//106
f 18//17 16//15 104//128 105//108
f 36//35 34//33 113//129 114//110
f 54//53 52//51 122//130 123//112
f 144//131 143//132 175//133 176//134
f 123//112 122//130 154//135 155//136
f 110//103 109//99 141//102 142//137
f 124//113 123//112 155//136 156//138
f 111//115 110//103 142//137 143//132
f 97//118 98//117 130//139 129//140
f 125//121 124//113 156//138 157//141
f 112//123 111//115 143//132 144//131
f 99//125 97//118 129//140 131//142
f 126//127 125//121 157//141 158//143
f 113//129 112//123 144//131 145//144
f 100//63 99//125 131//142 132//145
f 127//106 126//127 158//143 159//146
f 114//110 113//129 145//144 146//147
f 101//64 100//63 132//145 133//148
f 128//107 127//106 159//146 160//149
f 115//111 114//110 146//147 147//150
f 102//114 101//64 133//148 134//151
f 98//117 128//107 160//149 130//139
f 116//120 115//111 147//150 148//152
f 103//122 102//114 134//151 135//153
f 117//126 116//120 148//152 149//154
f 104//128 103//122 135//153 136//155
f 118//104 117//126 149//154 150//156
f 105//108 104//128 136//155 137//157
f 119//105 118//104 150//156 151//158
f 106//109 105//108 137//157 138//159
f 120//116 119//105 151//158 152//160
f 107//119 106//109 138//159 139//161
f 121//124 120//116 152//160 153//162
f 108//100 107//119 139//161 140//101
f 122//130 121//124 153//162 154//135
f 179//163 178//164 210//165 211//166
f 131//142 129//140 161//167 163//168
f 158//143 157//141 189//169 190//170
f 145//144 144//131 176//134 177//171
f 132//145 131//142 163//168 164//172
f 159//146 158//143 190//170 191//173
f 146//147 145//144 177//171 178//164
f 133//148 132//145 164//172 165//174
f 160//149 159//146 191//173 192//175
f 147//150 146//147 178//164 179//163
f 134//151 133//148 165//174 166//176
f 130//139 160//149 192//175 162//177
f 148//152 147//150 179//163 180//178
f 135//153 134//151 166//176 167//179
f 149//154 148//152 180//178 181//180
f 136//155 135//153 167//179 168//181
f 150//156 149//154 181//180 182//182
f 137//157 136//155 168//181 169//183
f 151//158 150//156 182//182 183//184
f 138//159 137//157 169//183 170//185
f 152//160 151//158 183//184 184//186
f 139//161 138//159 170//185 171//187
f 153//162 152//160 184//186 185//188
f 140//101 139//161 171//187 172//189
f 154//135 153//162 185//188 186//190
f 141//102 140//101 172//189 173//191
f 155//136 154//135 186//190 187//192
f 142//137 141//102 173//191 174//193
f 156//138 155//136 187//192 188//194
f 143//132 142//137 174//193 175//133
f 129//140 130//139 162//177 161//167
f 157//141 156//138 188//194 189//169
f 193//195 194//196 224//197 223//198 222//199 221//200 220//201 219//202 218//203 217//204 216//205 215//206 214//207 213//208 212//209 211//166 210//165 209//210 208//211 207//212 206//213 205//214 204//215 203//216 202//217 201//218 200//219 199//220 198//221 197//222 196//223 195//224
f 166//176 165//174 197//222 198//221
f 162//177 192//175 224//197 194//196
f 180//178 179//163 211//166 212//209
f 167//179 166//176 198//221 199//220
f 181//180 180//178 212//209 213//208
f 168//181 167//179 199//220 200//219
f 182//182 181//180 213//208 214//207
f 169//183 168//181 200//219 201//218
f 183//184 182//182 214//207 215//206
f 170//185 169//183 201//218 202//217
f 184//186 183//184 215//206 216//205
f 171//187 170//185 202//217 203//216
f 185//188 184//186 216//205 217//204
f 172//189 171//187 203//216 204//215
f 186//190 185//188 217//204 218//203
f 173//191 172//189 204//215 205//214
f 187//192 186//190 218//203 219//202
f 174//193 173//191 205//214 206//213
f 188//194 187//192 219//202 220//201
f 175//133 174//193 206//213 207//212
f 161//167 162//177 194//196 193//195
f 189//169 188//194 220//201 221//200
f 176//134 175//133 207//212 208//211
f 163//168 161//167 193//195 195//224
f 190//170 189//169 221//200 222//199
f 177//171 176//134 208//211 209//210
f 164//172 163//168 195//224 196//223
f 191//173 190//170 222//199 223//198
f 178//164 177//171 209//210 210//165
f 165//174 164//172 196//223 197//222
f 192//175 191//173 223//198 224//197
